<svg xmlns="http://www.w3.org/2000/svg" width="264" height="46" viewBox="0 0 264.0 46"><g transform="scale(0.7188)"><rect width="64" height="64" rx="18" fill="#00735f"/><g transform="translate(14.90 6.90) scale(0.95)"><path d="M 0 16 V 40 M 0 25 A 9 9 0 0 1 18 25 V 40 M 18 25 A 9 9 0 0 1 36 25 V 40" fill="none" stroke="#ffffff" stroke-width="5.00" stroke-linecap="round" stroke-linejoin="round"/></g><circle cx="52" cy="12" r="4.5" fill="#b93d0b"/></g><g transform="translate(64.5 0)"><path d="M 0 16 V 40 M 0 28 A 12 12 0 0 1 24 28 V 40 M 38 28 H 62 A 12 12 0 1 0 58.5 36.5 M 76 4 V 40 M 76 28 A 12 12 0 1 1 76 28.01 M 114 16 V 28 A 12 12 0 0 0 138 28 M 138 16 V 40 M 152 4 V 33 A 7 7 0 0 0 159 40 M 197 28 A 12 12 0 1 1 197 27.99 M 197 16 V 40" fill="none" stroke="#0b1117" stroke-width="5" stroke-linecap="round" stroke-linejoin="round"/></g></svg>